<svg width="60" height="60" viewBox="0 0 60 60" fill="none" xmlns="http://www.w3.org/2000/svg">
<mask id="mask0_14692_5470" style="mask-type:luminance" maskUnits="userSpaceOnUse" x="0" y="0" width="60" height="60">
<path d="M60 0H0V60H60V0Z" fill="white"/>
</mask>
<g mask="url(#mask0_14692_5470)">
<path d="M5.94468 56C4.36146 56 2.87012 55.3807 1.74464 54.2552C0.619162 53.1297 -0.00756252 51.6212 -0.000179645 50.0273C0.00884387 47.9872 0.40916 45.9955 1.18846 44.108C1.97761 42.1967 3.11785 40.488 4.5772 39.0286L20.42 23.1212C19.5046 21.1115 19.0271 18.9647 19.0312 16.827C19.037 12.8805 20.7219 8.93562 23.6529 6.00384L25.1639 4.49283C28.0613 1.5955 31.9135 0 36.011 0C40.1085 0 43.9608 1.5955 46.8573 4.49283L51.5069 9.14234C54.4042 12.0397 55.9998 15.8918 55.9998 19.9885C55.9998 24.0851 54.4042 27.9381 51.5069 30.8346L49.9958 32.3456C46.9861 35.3553 43.0321 37.0771 39.1356 37.0771C39.1077 37.0771 39.0807 37.0771 39.0536 37.0771C37.2448 37.0656 35.3457 36.6703 33.5296 35.9402C33.1046 36.8204 32.6256 37.5357 32.0956 38.0779C30.8857 39.3166 29.245 40.0286 27.5946 40.0302C26.9711 40.0302 26.4379 40.1779 26.2016 40.4141C25.9621 40.6537 25.8136 41.1885 25.8128 41.8103C25.8112 43.4156 25.132 45.0243 23.9491 46.2244C22.7612 47.4294 21.1296 48.1218 19.4742 48.1242C18.941 48.1242 18.4726 48.2998 18.1543 48.6164C17.9763 48.7936 17.841 48.9888 17.7499 49.198C16.8057 51.3718 15.1971 53.1429 13.2217 54.1855C10.9962 55.3602 8.48931 55.9869 5.97257 55.9984C5.96354 55.9984 5.95452 55.9984 5.9455 55.9984L5.94468 56ZM36.011 4.37471C33.0825 4.37471 30.3287 5.51493 28.2582 7.58621L26.7472 9.09722C24.6283 11.2161 23.4109 14.0355 23.4068 16.8336C23.4035 18.7375 23.9491 20.6693 24.9827 22.4199C25.4896 23.2779 25.3518 24.3697 24.6488 25.076L7.67391 42.1196C5.58948 44.204 4.38771 47.0923 4.37458 50.047C4.37294 50.4646 4.53701 50.86 4.83807 51.161C5.13748 51.4604 5.53042 51.6245 5.9455 51.6245H5.95288C7.76743 51.6163 9.57541 51.1643 11.18 50.3177C12.2792 49.7378 13.1873 48.7214 13.7369 47.4565C14.0486 46.7387 14.4957 46.0866 15.0658 45.5189C16.2077 44.3803 17.7712 43.752 19.4685 43.7495C19.9484 43.7495 20.4717 43.5206 20.8327 43.154C21.2051 42.7758 21.4364 42.2598 21.4372 41.8062C21.4397 39.9892 22.0328 38.3962 23.1074 37.3216C24.1796 36.2494 25.771 35.658 27.5888 35.6564C28.049 35.6564 28.5896 35.407 28.9653 35.0214C29.1228 34.8598 29.6806 34.1864 30.2401 32.3005C30.4312 31.6541 30.9103 31.1323 31.537 30.8863C32.1637 30.6402 32.87 30.6959 33.45 31.0388C35.2227 32.0855 37.2743 32.6926 39.0807 32.7032C39.0995 32.7032 39.1176 32.7032 39.1364 32.7032C41.8804 32.7032 44.7072 31.4482 46.9024 29.253L48.4134 27.742C50.4847 25.6707 51.625 22.9178 51.625 19.9893C51.625 17.0608 50.4847 14.307 48.4134 12.2365L43.7639 7.58703C41.6934 5.51575 38.9396 4.37553 36.011 4.37553V4.37471Z" fill="white"/>
<path d="M43.2038 21.4371C42.6443 21.4371 42.084 21.2238 41.6566 20.7965L35.0941 14.234C34.2401 13.3801 34.2401 11.9945 35.0941 11.1406C35.948 10.2867 37.3335 10.2867 38.1875 11.1406L44.7501 17.7031C45.604 18.557 45.604 19.9425 44.7501 20.7965C44.3227 21.2238 43.7632 21.4371 43.2029 21.4371H43.2038Z" fill="white"/>
</g>
</svg>
