<svg width="60" height="48" viewBox="0 0 60 48" fill="none" xmlns="http://www.w3.org/2000/svg">
<path d="M45.9375 47.3438H14.0625C6.30844 47.3438 0 41.0353 0 33.2812V14.0625C0 6.30844 6.30844 0 14.0625 0H45.9375C53.6916 0 60 6.30844 60 14.0625V33.2812C60 41.0353 53.6916 47.3438 45.9375 47.3438ZM14.0625 4.6875C8.89313 4.6875 4.6875 8.89313 4.6875 14.0625V33.2812C4.6875 38.4506 8.89313 42.6562 14.0625 42.6562H45.9375C51.1069 42.6562 55.3125 38.4506 55.3125 33.2812V14.0625C55.3125 8.89313 51.1069 4.6875 45.9375 4.6875H14.0625ZM38.5882 27.821L50.1728 18.972C51.2014 18.1862 51.3983 16.7154 50.6126 15.6867C49.8267 14.658 48.356 14.4612 47.3273 15.2469L35.7442 24.0949C32.3995 26.646 27.7286 26.6479 24.3817 24.1014L13.1573 15.3762C12.1354 14.5816 10.6628 14.7662 9.86848 15.7882C9.07406 16.8102 9.25852 18.2827 10.2805 19.0771L21.5135 27.8089C21.5191 27.8134 21.5249 27.8177 21.5306 27.8221C24.0413 29.7369 27.0495 30.6942 30.0584 30.6942C33.0673 30.6942 36.0768 29.7363 38.5882 27.821Z" fill="white"/>
</svg>
