<svg width="23" height="23" viewBox="0 0 23 23" fill="none" xmlns="http://www.w3.org/2000/svg">
<path d="M11.5 11.5002C10.0333 11.5002 8.77777 10.9779 7.73333 9.9335C6.68888 8.88905 6.16666 7.6335 6.16666 6.16683C6.16666 4.70016 6.68888 3.44461 7.73333 2.40016C8.77777 1.35572 10.0333 0.833496 11.5 0.833496C12.9667 0.833496 14.2222 1.35572 15.2667 2.40016C16.3111 3.44461 16.8333 4.70016 16.8333 6.16683C16.8333 7.6335 16.3111 8.88905 15.2667 9.9335C14.2222 10.9779 12.9667 11.5002 11.5 11.5002ZM0.833328 22.1668V18.4335C0.833328 17.6779 1.02777 16.9835 1.41666 16.3502C1.80555 15.7168 2.32222 15.2335 2.96666 14.9002C4.34444 14.2113 5.74444 13.6946 7.16666 13.3502C8.58888 13.0057 10.0333 12.8335 11.5 12.8335C12.9667 12.8335 14.4111 13.0057 15.8333 13.3502C17.2555 13.6946 18.6556 14.2113 20.0333 14.9002C20.6778 15.2335 21.1944 15.7168 21.5833 16.3502C21.9722 16.9835 22.1667 17.6779 22.1667 18.4335V22.1668H0.833328ZM3.49999 19.5002H19.5V18.4335C19.5 18.1891 19.4389 17.9668 19.3167 17.7668C19.1944 17.5668 19.0333 17.4113 18.8333 17.3002C17.6333 16.7002 16.4222 16.2502 15.2 15.9502C13.9778 15.6502 12.7444 15.5002 11.5 15.5002C10.2555 15.5002 9.02222 15.6502 7.79999 15.9502C6.57777 16.2502 5.36666 16.7002 4.16666 17.3002C3.96666 17.4113 3.80555 17.5668 3.68333 17.7668C3.56111 17.9668 3.49999 18.1891 3.49999 18.4335V19.5002ZM11.5 8.8335C12.2333 8.8335 12.8611 8.57238 13.3833 8.05016C13.9056 7.52794 14.1667 6.90016 14.1667 6.16683C14.1667 5.4335 13.9056 4.80572 13.3833 4.2835C12.8611 3.76127 12.2333 3.50016 11.5 3.50016C10.7667 3.50016 10.1389 3.76127 9.61666 4.2835C9.09444 4.80572 8.83333 5.4335 8.83333 6.16683C8.83333 6.90016 9.09444 7.52794 9.61666 8.05016C10.1389 8.57238 10.7667 8.8335 11.5 8.8335Z" fill="#013C88"/>
</svg>
